<svg xmlns="http://www.w3.org/2000/svg" viewBox="0 0 100 100" role="img" aria-label="Pica Games">
  <defs>
    <!-- Singa -->
    <g id="s">
      <circle cx="32" cy="36" r="21" fill="#D97706"/><circle cx="32" cy="38" r="14" fill="#FB923C"/><circle cx="19" cy="27" r="4" fill="#B45309"/><circle cx="45" cy="27" r="4" fill="#B45309"/><circle cx="25" cy="34" r="2.4" fill="#431407"/><circle cx="39" cy="34" r="2.4" fill="#431407"/><ellipse cx="32" cy="44" rx="8" ry="5" fill="#FDE68A"/><path d="M32 42 l2.4 2.4 -2.4 2.4 -2.4 -2.4 z" fill="#431407"/><path d="M26 49 q6 3 12 0" stroke="#78350F" stroke-width="2.2" fill="none" stroke-linecap="round"/>
    </g>
    <!-- Panda -->
    <g id="p">
      <ellipse cx="32" cy="44" rx="17" ry="12" fill="#F5F5F4"/><circle cx="32" cy="30" r="15" fill="#F5F5F4"/><circle cx="21" cy="18" r="6" fill="#111827"/><circle cx="43" cy="18" r="6" fill="#111827"/><ellipse cx="26" cy="30" rx="5" ry="6.5" fill="#111827"/><ellipse cx="38" cy="30" rx="5" ry="6.5" fill="#111827"/><circle cx="26" cy="30" r="2" fill="#fff"/><circle cx="38" cy="30" r="2" fill="#fff"/><ellipse cx="32" cy="38" rx="6" ry="4" fill="#fff"/><circle cx="32" cy="37" r="2" fill="#111827"/>
    </g>
    <!-- Katak -->
    <g id="k">
      <ellipse cx="32" cy="44" rx="18" ry="12" fill="#4ADE80"/><circle cx="25" cy="31" r="5.5" fill="#22C55E"/><circle cx="39" cy="31" r="5.5" fill="#22C55E"/><circle cx="25" cy="31" r="2.2" fill="#052E16"/><circle cx="39" cy="31" r="2.2" fill="#052E16"/><path d="M24 46 q8 6 16 0" stroke="#052E16" stroke-width="2.4" fill="none" stroke-linecap="round"/><path d="M16 48 q-2 4 -6 5 M48 48 q2 4 6 5" stroke="#22C55E" stroke-width="2.4" stroke-linecap="round"/>
    </g>
    <!-- Ikan -->
    <g id="i">
      <ellipse cx="36" cy="32" rx="16" ry="12" fill="#60A5FA"/><path d="M14 32 L24 22 L24 42 Z" fill="#3B82F6"/><path d="M30 20 L38 12 L44 20 Z" fill="#3B82F6"/><circle cx="44" cy="30" r="2.8" fill="#172554"/><circle cx="45.5" cy="28.5" r="1" fill="#fff"/>
    </g>
  </defs>

  <rect width="100" height="100" rx="24" fill="#FFD459"/>

  <!-- colokan: 4 tile arah jarum jam di grid 2x2, gap 3 -->
  <svg x="2" y="2" width="47" height="47" viewBox="0 0 64 64"><use href="#s"/></svg>
  <svg x="51" y="2" width="47" height="47" viewBox="0 0 64 64"><use href="#p"/></svg>
  <svg x="2" y="51" width="47" height="47" viewBox="0 0 64 64"><use href="#k"/></svg>
  <svg x="51" y="51" width="47" height="47" viewBox="0 0 64 64"><use href="#i"/></svg>
</svg>
